<?xml version="1.0" encoding="utf-8"?>
<!-- Generator: Adobe Illustrator 18.1.1, SVG Export Plug-In . SVG Version: 6.00 Build 0)  -->
<svg version="1.1" id="Layer_1" xmlns="http://www.w3.org/2000/svg" xmlns:xlink="http://www.w3.org/1999/xlink" x="0px" y="0px"
	 viewBox="16.1 30.2 96.4 25.5" enable-background="new 16.1 30.2 96.4 25.5" xml:space="preserve">
<path fill="#8DC63F" d="M92.6,47.2l0.3,0.8l1.2,3.5l1-1.1c1.9,1.6,4.3,2.5,6.9,2.5c5.9,0,10.6-4.6,10.6-10.3
	c0-5.7-4.8-10.3-10.6-10.3c-5.9,0-10.6,4.6-10.6,10.3c0,1.1,0.2,2.1,0.5,3.1l2,0.4l0,0c-0.5-1.1-0.8-2.3-0.8-3.5
	c0-4.8,4-8.7,8.9-8.7s8.9,3.9,8.9,8.7s-4,8.7-8.9,8.7c-2.1,0-4.2-0.8-5.7-2.1l1-1L92.6,47.2L92.6,47.2z M102.3,41.6
	c0.3,0.2,0.6,0.5,0.6,0.9c0,0.5-0.4,1-1,1c-0.2,0-0.4-0.1-0.5-0.1v0.1L97,46c-0.2,0.1-0.5,0-0.6-0.2s-0.1-0.5,0.1-0.6l4.4-2.6
	c0-0.4,0.2-0.7,0.5-0.8v-6.1c0-0.2,0.2-0.4,0.5-0.4c0.3,0,0.5,0.2,0.5,0.4L102.3,41.6L102.3,41.6z"/>
<path fill="#8DC63F" d="M33.4,42.4c0,0.3,0,0.5,0,0.8c0,0.3,0,0.5,0,0.8c0,0.6-0.2,1.2-0.7,1.6c-0.5,0.4-1,0.7-1.7,0.7H18.7
	c-0.6,0-1.2-0.2-1.7-0.7c-0.5-0.4-0.7-1-0.7-1.6V41c0-0.6,0.3-1.1,0.8-1.5c0.5-0.4,1.1-0.6,1.5-0.8L29,34.5H16.4v-1.3
	c0-0.6,0.2-1.1,0.7-1.5c0.4-0.4,1-0.6,1.6-0.6h12c0.6,0,1.2,0.2,1.6,0.6c0.4,0.4,0.7,0.9,0.7,1.5V36c0,0.6-0.3,1.1-1,1.5
	c-0.6,0.4-1.2,0.7-1.8,0.9l-9.6,4c2.1,0,4.3,0,6.4,0C29.1,42.4,31.3,42.4,33.4,42.4z"/>
<path fill="#8DC63F" d="M37.1,46.3c-0.6,0-1.2-0.2-1.7-0.7s-0.7-1-0.7-1.6V31c0,0,0.7,0,2.2,0c1.5,0,2.2,0,2.2,0l-0.1,11
	c0,0.3,0.1,0.4,0.4,0.4h6.9c0.3,0,0.4-0.1,0.4-0.4l0.1-11c0,0,0.7,0,2.2,0c1.5,0,2.2,0,2.2,0v13c0,0.6-0.2,1.2-0.7,1.6
	c-0.5,0.4-1,0.7-1.7,0.7C48.9,46.3,37.1,46.3,37.1,46.3z"/>
<path fill="#8DC63F" d="M55,46.3c-0.6,0-1.2-0.2-1.7-0.7c-0.5-0.4-0.7-1-0.7-1.6V31c0,0,0.7,0,2.2,0c1.5,0,2.2,0,2.2,0L57,42
	c0,0.3,0.1,0.4,0.4,0.4h6.9c0.3,0,0.4-0.1,0.4-0.4l0.1-11c0,0,0.7,0,2.2,0c1.5,0,2.2,0,2.2,0v13c0,0.6-0.2,1.2-0.7,1.6
	s-1,0.7-1.7,0.7C66.8,46.3,55,46.3,55,46.3z"/>
<path fill="#8DC63F" d="M70.5,42.4c0,0.3,0,0.5,0,0.8c0,0.3,0,0.5,0,0.8c0,0.6,0.2,1.2,0.7,1.6s1,0.7,1.7,0.7h12.3
	c0.6,0,1.2-0.2,1.7-0.7c0.5-0.4,0.7-1,0.7-1.6V41c0-0.6-0.3-1.1-0.8-1.5c-0.5-0.4-1.1-0.6-1.5-0.8l-10.3-4.2h12.7v-1.3
	c0-0.6-0.2-1.1-0.7-1.5c-0.4-0.4-1-0.6-1.6-0.6h-12c-0.6,0-1.2,0.2-1.6,0.6c-0.4,0.4-0.7,0.9-0.7,1.5V36c0,0.6,0.3,1.1,1,1.5
	c0.6,0.4,1.2,0.7,1.8,0.9l9.6,4c-2.1,0-4.3,0-6.4,0C74.8,42.4,72.6,42.4,70.5,42.4z"/>
<path fill="#8DC63F" d="M32.6,53.1c0,0.5-0.2,0.9-0.6,1.3c-0.4,0.3-0.8,0.5-1.4,0.5H27c-0.5,0-1-0.2-1.4-0.5
	c-0.4-0.3-0.6-0.8-0.6-1.3v-2c0-0.5,0.2-0.9,0.6-1.3c0.4-0.3,0.8-0.5,1.4-0.5h3.6c0.5,0,1,0.2,1.4,0.5c0.4,0.3,0.6,0.8,0.6,1.3
	L32.6,53.1L32.6,53.1z M30.9,52.9v-1.7c0-0.3-0.2-0.4-0.5-0.4h-3.1c-0.3,0-0.5,0.1-0.5,0.4v1.7c0,0.3,0.2,0.4,0.5,0.4h3.1
	C30.7,53.3,30.9,53.2,30.9,52.9z"/>
<path fill="#8DC63F" d="M41,51.3L41,51.3L41,51.3L41,51.3L41,51.3c0-0.6-0.2-1-0.4-1.3c-0.3-0.4-0.7-0.6-1.3-0.6h-5.8V55h1.2h0.2
	h0.4v-2.7l0,0v-1.4h3.9c0.3,0,0.4,0.2,0.4,0.7s-0.1,0.7-0.4,0.7H36l2.6,2.7h1.9l-1.4-1.4h0.5c0.4-0.1,0.7-0.3,1-0.6
	c0.3-0.3,0.4-0.7,0.4-1.2l0,0v-0.1v0v0V51.3z"/>
<path fill="#8DC63F" d="M87,49.1h-5.3c-0.3,0-0.6,0.2-0.6,0.4v0.1v0.3v0.2v0.2v3.2v0.4v0v0.3v0.1c0,0.2,0.3,0.4,0.6,0.4H87
	c0.3,0,0.6-0.2,0.6-0.4v-0.1v-0.3v-0.4h-4.1h-0.4h-0.6v-1h4.7v-1.2h-4.7v-1h0.6h0.4h4.1v-0.4v-0.3v-0.1C87.5,49.3,87.3,49.1,87,49.1
	z"/>
<path fill="#8DC63F" d="M72.7,51L72.7,51L72.7,51L72.7,51L72.7,51c0-0.6-0.2-1-0.4-1.3c-0.3-0.4-0.7-0.6-1.3-0.6h-5.8v5.5h1.2h0.2
	h0.4V52l0,0v-1.4h3.9c0.3,0,0.4,0.2,0.4,0.7S71.1,52,70.8,52h-3.2l2.6,2.7h1.9l-1.4-1.4h0.5c0.4-0.1,0.7-0.3,1-0.6
	c0.3-0.3,0.4-0.7,0.4-1.2l0,0v-0.1v0v0V51z"/>
<path fill="#8DC63F" d="M76,53.2c-0.4,0-0.5-0.1-0.5-0.4V51c0-0.3,0.2-0.4,0.5-0.4h4.3v-0.2v-0.3v-1h-4.7c-0.5,0-1,0.2-1.4,0.5
	c-0.4,0.3-0.6,0.8-0.6,1.3v2c0,0.5,0.2,0.9,0.6,1.3c0.4,0.3,0.8,0.5,1.4,0.5h4.7v-0.6v-0.7v-0.2H76z"/>
<path fill="#8DC63F" d="M64.3,52.9c0,0.5-0.2,0.9-0.6,1.3c-0.4,0.3-0.8,0.5-1.4,0.5h-3.5c-0.5,0-1-0.2-1.4-0.5
	c-0.4-0.3-0.6-0.8-0.6-1.3v-2c0-0.5,0.2-0.9,0.6-1.3s0.8-0.5,1.4-0.5h3.5c0.5,0,1,0.2,1.4,0.5c0.4,0.3,0.6,0.8,0.6,1.3V52.9z
	 M62.6,52.7V51c0-0.3-0.2-0.4-0.5-0.4h-3.1c-0.3,0-0.5,0.1-0.5,0.4v1.7c0,0.3,0.2,0.4,0.5,0.4h3.1C62.4,53.1,62.6,53,62.6,52.7z"/>
<path fill="#8DC63F" d="M48.5,55l-3-2.8l2.9-2.8h-1.9l0,0c-0.1,0-0.3,0.1-0.4,0.1l-1.9,1.7h-0.4v-1.9h-0.4h-1.4v5.5h1.4h0.4V53h0.6
	l1.9,1.7c0.1,0.1,0.3,0.1,0.4,0.1l0,0L48.5,55L48.5,55z"/>
<path fill="#8DC63F" d="M23.6,49.2c-0.2,0-0.3,0-0.4,0h-0.2l0,3.9c0,0.1,0,0.1-0.1,0.1h-0.5c0,0,0,0,0,0H22h-0.7c0,0,0,0,0,0h-0.2
	c-0.1,0-0.1-0.1-0.1-0.1l0-3.9h-0.2c0,0-0.1,0-0.1,0c-0.2,0-0.3,0-0.4,0c0,0-0.1,0-0.3,0c-0.1,0-0.2,0-0.4,0c0,0-0.1,0-0.1,0h-0.2
	l0,3.9c0,0.1,0,0.1-0.1,0.1h-0.5c0,0,0,0,0,0h-0.2h-0.7c0,0,0,0,0,0h-0.2c-0.1,0-0.1-0.1-0.1-0.1l0-3.9h-0.3c-0.1,0-0.3,0-0.4,0
	c-0.4,0-0.7,0-0.7,0v4.4v0.5c0,0.2,0.1,0.4,0.2,0.6c0.1,0.2,0.3,0.3,0.5,0.3h0.8h1h1c0.2,0,0.4-0.1,0.5-0.3c0,0,0.1-0.1,0.1-0.1
	c0,0,0.1,0.1,0.1,0.1c0.1,0.2,0.3,0.3,0.5,0.3h1h1h0.8c0.2,0,0.4-0.1,0.5-0.3s0.2-0.4,0.2-0.6v-0.5v-4.4
	C24.3,49.2,24,49.2,23.6,49.2z"/>
<path fill="#8DC63F" d="M55.1,49.4h-3.9h-1.1h-0.7v0.7v0.3v4.5h1.8v-1.2v-0.2h4.2v-1.3h-4.2v-1v-0.3h4.7v-0.5v-0.2v-0.2
	C55.9,49.7,55.5,49.4,55.1,49.4z"/>
</svg>
